<svg width="177" height="176" viewBox="0 0 177 176" fill="none" xmlns="http://www.w3.org/2000/svg">
<path d="M87.797 0C42.8966 0 45.7005 19.4715 45.7005 19.4715L45.7505 39.6438H88.5978V45.7005H28.7317C28.7317 45.7005 0 42.442 0 87.7469C0 133.052 25.0777 131.445 25.0777 131.445H40.0442V110.422C40.0442 110.422 39.2375 85.3442 64.7215 85.3442C90.2054 85.3442 107.218 85.3442 107.218 85.3442C107.218 85.3442 131.095 85.7302 131.095 62.2687C131.095 38.8073 131.095 23.4759 131.095 23.4759C131.095 23.4759 134.72 0 87.7969 0L87.797 0ZM64.1709 13.565C68.4339 13.565 71.8794 17.0105 71.8794 21.2735C71.8794 25.5365 68.4339 28.982 64.1709 28.982C59.9079 28.982 56.4624 25.5365 56.4624 21.2735C56.4624 17.0105 59.9079 13.565 64.1709 13.565V13.565Z" fill="#2A6DB2"/>
<path d="M89.0722 175.948C133.972 175.948 131.169 156.477 131.169 156.477L131.119 136.304H88.2713V130.248H148.137C148.137 130.248 176.869 133.506 176.869 88.2011C176.869 42.8963 151.791 44.5029 151.791 44.5029H136.825V65.5261C136.825 65.5261 137.632 90.6038 112.148 90.6038C86.6637 90.6038 69.6508 90.6038 69.6508 90.6038C69.6508 90.6038 45.7744 90.2178 45.7744 113.679C45.7744 137.141 45.7744 152.472 45.7744 152.472C45.7744 152.472 42.1493 175.948 89.0722 175.948H89.0722ZM112.698 162.383C108.435 162.383 104.99 158.938 104.99 154.675C104.99 150.412 108.435 146.966 112.698 146.966C116.961 146.966 120.407 150.412 120.407 154.675C120.407 158.938 116.961 162.383 112.698 162.383Z" fill="#505050"/>
</svg>
